<svg height="496pt" viewBox="-120 0 496 496.26" width="496pt" xmlns="http://www.w3.org/2000/svg" xmlns:xlink="http://www.w3.org/1999/xlink"><linearGradient id="a"><stop offset="0" stop-color="#f9a86d"/><stop offset=".503" stop-color="#f05361"/><stop offset="1" stop-color="#b72563"/></linearGradient><linearGradient id="b" gradientTransform="matrix(.999476 0 0 -.999476 -119.799 487.202612)" gradientUnits="userSpaceOnUse" x1="9.5947" x2="529.6547" xlink:href="#a" y1="437.832" y2="437.832"/><linearGradient id="c" gradientTransform="matrix(.999476 0 0 -.999476 -119.799 487.202612)" gradientUnits="userSpaceOnUse" x1="9.5947" x2="529.6547" xlink:href="#a" y1="239.3279" y2="239.3279"/><linearGradient id="d" gradientTransform="matrix(.999476 0 0 -.999476 -119.799 487.202612)" gradientUnits="userSpaceOnUse" x1="9.5947" x2="529.6547" xlink:href="#a" y1="57.3659" y2="57.3659"/><linearGradient id="e" gradientTransform="matrix(.999476 0 0 -.999476 -119.799 487.202612)" gradientUnits="userSpaceOnUse" x1="9.5947" x2="529.6547" xlink:href="#a" y1="135.9404" y2="135.9404"/><linearGradient id="f" gradientTransform="matrix(.999476 0 0 -.999476 -119.799 487.202612)" gradientUnits="userSpaceOnUse" x1="9.5947" x2="529.6547" xlink:href="#a" y1="147.7047" y2="147.7047"/><path d="m91 41.332031c-18.253906-.019531-33.046875-14.8125-33.066406-33.066406 0-4.566406-3.699219-8.265625-8.265625-8.265625-4.566407 0-8.265625 3.699219-8.265625 8.265625-.019532 18.253906-14.8125 33.046875-33.070313 33.066406-4.5625 0-8.2656248 3.703125-8.2656248 8.269531 0 4.5625 3.7031248 8.265626 8.2656248 8.265626 18.257813.019531 33.050781 14.8125 33.070313 33.066406 0 4.566406 3.699218 8.265625 8.265625 8.265625 4.566406 0 8.265625-3.699219 8.265625-8.265625.019531-18.253906 14.8125-33.046875 33.066406-33.066406 4.566406 0 8.265625-3.703126 8.265625-8.265626 0-4.566406-3.699219-8.269531-8.265625-8.269531zm-41.332031 22.242188c-3.683594-5.542969-8.433594-10.292969-13.976563-13.972657 5.542969-3.683593 10.292969-8.433593 13.976563-13.976562 3.679687 5.542969 8.433593 10.292969 13.972656 13.976562-5.539063 3.679688-10.292969 8.429688-13.972656 13.972657zm0 0" fill="url(#b)"/><path d="m248.066406 99.199219v-66.132813h-66.132812c0-18.261718-14.804688-33.066406-33.066406-33.066406-18.261719 0-33.066407 14.804688-33.066407 33.066406v253.308594c-45.472656 14.496094-75.820312 57.386719-74.359375 105.09375 2.253906 56.234375 46.96875 101.5 103.171875 104.445312 1.445313.058594 2.871094.085938 4.308594.085938 59.320313 0 107.410156-48.089844 107.410156-107.410156 0-46.601563-30.050781-87.886719-74.398437-102.210938v-104.511718h66.132812v-66.132813h-66.132812v-16.535156zm-16.53125 33.066406v33.066406h-66.132812v133.660157l6.199218 1.597656c48.597657 12.546875 77.824219 62.117187 65.277344 110.714844-10.699218 41.441406-48.855468 69.800781-91.621094 68.09375-47.550781-2.496094-85.378906-40.796876-87.285156-88.375-1.292968-42.398438 27.046875-80 68.160156-90.433594l6.199219-1.597656v-265.925782c0-9.132812 7.402344-16.53125 16.535157-16.53125 9.128906 0 16.53125 7.398438 16.53125 16.53125v16.535156h66.132812v33.066407h-66.132812v49.597656zm0 0" fill="url(#c)"/><path d="m148.867188 396.800781c-18.261719 0-33.066407 14.804688-33.066407 33.066407 0 18.261718 14.804688 33.066406 33.066407 33.066406 18.261718 0 33.066406-14.804688 33.066406-33.066406-.019532-18.253907-14.8125-33.046876-33.066406-33.066407zm0 49.597657c-9.132813 0-16.535157-7.402344-16.535157-16.53125 0-9.132813 7.402344-16.535157 16.535157-16.535157 9.132812 0 16.535156 7.402344 16.535156 16.535157-.011719 9.125-7.40625 16.523437-16.535156 16.53125zm0 0" fill="url(#d)"/><path d="m148.867188 330.667969c31.941406.035156 57.828124 25.921875 57.867187 57.867187h16.53125c-.042969-41.074218-33.328125-74.355468-74.398437-74.402344zm0 0" fill="url(#e)"/><path d="m120.96875 319.546875c-15.363281 6.253906-28.214844 17.433594-36.539062 31.78125l14.304687 8.277344c6.480469-11.164063 16.480469-19.863281 28.433594-24.738281zm0 0" fill="url(#f)"/></svg>